<?xml version="1.0" encoding="iso-8859-1"?>
<!-- Generator: Adobe Illustrator 19.0.0, SVG Export Plug-In . SVG Version: 6.00 Build 0)  -->
<svg version="1.1" id="Capa_1" xmlns="http://www.w3.org/2000/svg" xmlns:xlink="http://www.w3.org/1999/xlink" x="0px" y="0px"
	 viewBox="0 0 512 512" style="enable-background:new 0 0 512 512;" xml:space="preserve">
<path style="fill:#A1A7B3;" d="M454.3,511.7H57.7c-30.901,0-52.5-30-42.9-59.099l6.899-20.7h468.6l6.899,20.7
	C506.8,481.7,485.2,511.7,454.3,511.7z"/>
<path style="fill:#979CA7;" d="M454.3,511.7H256v-79.799h234.3l6.899,20.7C506.8,481.7,485.2,511.7,454.3,511.7z"/>
<polygon style="fill:#FFCF99;" points="392.199,353.899 348.701,421.7 163.599,421.7 119.801,353.899 153.701,336.2 165.7,300.2 
	346.3,300.2 358.299,336.2 "/>
<polygon style="fill:#FFC380;" points="392.199,353.899 348.701,421.7 256,421.7 256,300.2 346.3,300.2 358.299,336.2 "/>
<path style="fill:#C4CAD9;" d="M421,391.7v120H91v-120h135c11.7,0,21.899,4.501,30,11.7c8.101-7.2,18.3-11.7,30-11.7H421z"/>
<path style="fill:#B8BFCC;" d="M421,391.7v120H256V403.4c8.101-7.2,18.3-11.7,30-11.7L421,391.7L421,391.7z"/>
<path style="fill:#A1A7B3;" d="M361,136.7v60c0,8.401-6.599,15-15,15H166c-8.401,0-15-6.599-15-15v-60c0-41.4,33.6-76,75-76h60
	C327.4,60.7,361,95.3,361,136.7z"/>
<path style="fill:#979CA7;" d="M361,136.7v60c0,8.401-6.599,15-15,15h-90v-151h30C327.4,60.7,361,95.3,361,136.7z"/>
<path style="fill:#A1A7B3;" d="M360.7,265.399C356.201,319.401,310.3,361.7,256,361.7s-100.201-42.299-104.7-96.301
	c-0.601-8.099,5.4-15.298,13.799-16.199h181.802C355.3,250.101,361.3,257.3,360.7,265.399z"/>
<path style="fill:#979CA7;" d="M360.7,265.399C356.201,319.401,310.3,361.7,256,361.7V249.2h90.901
	C355.3,250.101,361.3,257.3,360.7,265.399z"/>
<path style="fill:#C4CAD9;" d="M376,181.7h-60c-25.8,0-48.6-24.901-48.9-24.901c-2.999-3.3-6.899-5.099-11.1-5.099
	s-8.101,1.8-11.1,5.099c-0.3,0-23.101,24.901-48.9,24.901h-60c-8.401,0-15,6.599-15,15v60c0,6.899,4.799,12.9,11.4,14.399L181,283.4
	l60,15l11.4,2.699c1.199,0.601,2.401,0.601,3.6,0.601s2.401,0,3.6-0.601L271,298.4l60-15l48.6-12.301
	c6.601-1.5,11.4-7.5,11.4-14.399v-60C391,188.299,384.401,181.7,376,181.7z"/>
<path style="fill:#B8BFCC;" d="M391,196.7v60c0,6.899-4.799,12.9-11.4,14.399L331,283.4l-60,15l-11.4,2.699
	c-1.199,0.601-2.401,0.601-3.6,0.601v-150c4.2,0,8.101,1.8,11.1,5.099c0.3,0,23.101,24.901,48.9,24.901h60
	C384.401,181.7,391,188.299,391,196.7z"/>
<path style="fill:#E6EEFF;" d="M105,451.7H15c-8.291,0-15-6.709-15-15c0-57.891,47.109-105,105-105c24.814,0,45,20.186,45,45v30
	C150,431.514,129.814,451.7,105,451.7z"/>
<path style="fill:#DAE2F2;" d="M497,451.7h-90c-24.814,0-45-20.186-45-45v-30c0-24.814,20.186-45,45-45c57.891,0,105,47.109,105,105
	C512,444.991,505.291,451.7,497,451.7z"/>
<path style="fill:#5C5F66;" d="M271,226.7v71.7l-11.4,2.699c-1.199,0.601-2.401,0.601-3.6,0.601s-2.401,0-3.6-0.601L241,298.4v-71.7
	c0-8.401,6.599-15,15-15S271,218.299,271,226.7z"/>
<path style="fill:#53565C;" d="M331,241.7v41.7l-30,7.5v-49.2c0-8.401,6.599-15,15-15S331,233.299,331,241.7z"/>
<path style="fill:#5C5F66;" d="M211,241.7v49.2l-30-7.5v-41.7c0-8.401,6.599-15,15-15S211,233.299,211,241.7z"/>
<path style="fill:#53565C;" d="M271,226.7v71.7l-11.4,2.699c-1.199,0.601-2.401,0.601-3.6,0.601v-90
	C264.401,211.7,271,218.299,271,226.7z"/>
<path style="fill:#E6EEFF;" d="M299.5,69.101l-30-61C266.8,2.999,261.4,0.3,256,0.3s-10.8,2.699-13.5,7.8l-30,61
	c-2.699,5.698-1.8,12.599,3.001,17.098l30,30C248.2,119.2,252.1,120.7,256,120.7s7.8-1.5,10.499-4.501l30-30
	C301.3,81.7,302.199,74.799,299.5,69.101z"/>
<path style="fill:#DAE2F2;" d="M296.499,86.199l-30,30C263.8,119.2,259.9,120.7,256,120.7V0.3c5.4,0,10.8,2.699,13.5,7.8l30,61
	C302.199,74.799,301.3,81.7,296.499,86.199z"/>
<g>
</g>
<g>
</g>
<g>
</g>
<g>
</g>
<g>
</g>
<g>
</g>
<g>
</g>
<g>
</g>
<g>
</g>
<g>
</g>
<g>
</g>
<g>
</g>
<g>
</g>
<g>
</g>
<g>
</g>
</svg>
