<?xml version="1.0" encoding="iso-8859-1"?>
<!-- Generator: Adobe Illustrator 19.0.0, SVG Export Plug-In . SVG Version: 6.00 Build 0)  -->
<svg version="1.1" id="Capa_1" xmlns="http://www.w3.org/2000/svg" xmlns:xlink="http://www.w3.org/1999/xlink" x="0px" y="0px"
	 viewBox="0 0 512 512" style="enable-background:new 0 0 512 512;" xml:space="preserve">
<path style="fill:#303C42;" d="M448,352V224c0-17.646-14.354-32-32-32c-9.816,0-18.503,4.538-24.378,11.517
	C384.001,196.43,373.872,192,362.667,192H320v-21.333h21.333C364.865,170.667,384,151.531,384,128V64
	c0-23.531-19.135-42.667-42.667-42.667h-64C277.333,9.573,267.76,0,256,0c-11.76,0-21.333,9.573-21.333,21.333h-64
	C147.135,21.333,128,40.469,128,64v64c0,23.531,19.135,42.667,42.667,42.667H192V192h-42.667c-11.206,0-21.335,4.43-28.956,11.517
	C114.503,196.538,105.816,192,96,192c-17.646,0-32,14.354-32,32v128c0,9.177,3.935,17.406,10.145,23.246
	C67.004,385.885,64,401.578,64,416c0,5.896,4.771,10.667,10.667,10.667c5.896,0,10.667-4.771,10.667-10.667
	c0-12.74,4.25-32,10.667-32c6.458,0,10.635,18.958,10.667,32.01c0.021,5.885,4.792,10.646,10.667,10.646h0.01
	c5.885,0,10.656-4.771,10.656-10.656c0-5.725-0.509-11.659-1.503-17.417c6.617,4.221,14.419,6.75,22.836,6.75v32.272
	C136.46,447.352,128,462.646,128,480v21.333c0,5.896,4.771,10.667,10.667,10.667H224c5.896,0,10.667-4.771,10.667-10.667V480
	c0-17.354-8.46-32.648-21.333-42.395v-32.272h85.333v32.272c-12.874,9.746-21.333,25.04-21.333,42.395v21.333
	c0,5.896,4.771,10.667,10.667,10.667h85.333c5.896,0,10.667-4.771,10.667-10.667V480c0-17.354-8.46-32.648-21.333-42.395v-32.272
	c8.417,0,16.219-2.529,22.836-6.75C384.509,404.341,384,410.275,384,416c0,5.896,4.771,10.667,10.667,10.667
	c5.896,0,10.667-4.771,10.667-10.667c0-12.74,4.25-32,10.667-32c6.458,0,10.635,18.958,10.667,32.01
	c0.021,5.885,4.792,10.646,10.667,10.646h0.01c5.885,0,10.656-4.771,10.656-10.656c0-14.422-3.004-30.115-10.145-40.754
	C444.065,369.406,448,361.177,448,352z"/>
<g>
	<path style="fill:#CCCCCC;" d="M405.333,224c0-5.885,4.781-10.667,10.667-10.667c5.885,0,10.667,4.781,10.667,10.667v128
		c0,5.885-4.781,10.667-10.667,10.667c-5.885,0-10.667-4.781-10.667-10.667V224z"/>
	<rect x="213.333" y="170.667" style="fill:#CCCCCC;" width="85.333" height="21.333"/>
	<path style="fill:#CCCCCC;" d="M85.333,224c0-5.885,4.781-10.667,10.667-10.667c5.885,0,10.667,4.781,10.667,10.667v128
		c0,5.885-4.781,10.667-10.667,10.667c-5.885,0-10.667-4.781-10.667-10.667V224z"/>
	<path style="fill:#CCCCCC;" d="M213.333,490.667h-64V480c0-17.646,14.354-32,32-32s32,14.354,32,32V490.667z"/>
	<path style="fill:#CCCCCC;" d="M192,427.746c-3.448-0.703-7.014-1.079-10.667-1.079s-7.219,0.376-10.667,1.079v-22.413H192V427.746
		z"/>
	<path style="fill:#CCCCCC;" d="M362.667,490.667h-64V480c0-17.646,14.354-32,32-32c17.646,0,32,14.354,32,32V490.667z"/>
</g>
<path style="opacity:0.1;enable-background:new    ;" d="M330.667,448C342.431,448,352,462.354,352,480v10.667h10.667V480
	C362.667,462.354,348.313,448,330.667,448z"/>
<path style="opacity:0.2;fill:#FFFFFF;enable-background:new    ;" d="M298.667,480v10.667h10.667V480c0-17.646,9.569-32,21.333-32
	C313.021,448,298.667,462.354,298.667,480z"/>
<path style="opacity:0.1;enable-background:new    ;" d="M181.333,448c11.764,0,21.333,14.354,21.333,32v10.667h10.667V480
	C213.333,462.354,198.979,448,181.333,448z"/>
<path style="opacity:0.2;fill:#FFFFFF;enable-background:new    ;" d="M149.333,480v10.667H160V480c0-17.646,9.569-32,21.333-32
	C163.688,448,149.333,462.354,149.333,480z"/>
<g>
	<path style="fill:#CCCCCC;" d="M341.333,427.746c-3.448-0.703-7.014-1.079-10.667-1.079s-7.219,0.376-10.667,1.079v-22.413h21.333
		V427.746z"/>
	<path style="fill:#CCCCCC;" d="M384,362.667c0,11.76-9.573,21.333-21.333,21.333H149.333c-11.76,0-21.333-9.573-21.333-21.333v-128
		c0-11.76,9.573-21.333,21.333-21.333h213.333c11.76,0,21.333,9.573,21.333,21.333V362.667z"/>
</g>
<path style="opacity:0.1;enable-background:new    ;" d="M362.667,213.333h-17.777c9.799,0,17.777,9.573,17.777,21.333v128
	c0,11.76-7.978,21.333-17.777,21.333h17.777c11.76,0,21.333-9.573,21.333-21.333v-128C384,222.906,374.427,213.333,362.667,213.333z
	"/>
<path style="opacity:0.2;fill:#FFFFFF;enable-background:new    ;" d="M149.333,362.667v-128c0-11.76,7.978-21.333,17.777-21.333
	h-17.777c-11.76,0-21.333,9.573-21.333,21.333v128c0,11.76,9.573,21.333,21.333,21.333h17.777
	C157.311,384,149.333,374.427,149.333,362.667z"/>
<path style="fill:#CCCCCC;" d="M149.333,128V64c0-11.76,9.573-21.333,21.333-21.333h170.667c11.76,0,21.333,9.573,21.333,21.333v64
	c0,11.76-9.573,21.333-21.333,21.333H170.667C158.906,149.333,149.333,139.76,149.333,128z"/>
<path style="opacity:0.1;enable-background:new    ;" d="M341.333,42.667h-17.066c9.408,0,17.066,9.573,17.066,21.333v64
	c0,11.76-7.659,21.333-17.066,21.333h17.066c11.76,0,21.333-9.573,21.333-21.333V64C362.667,52.24,353.094,42.667,341.333,42.667z"
	/>
<path style="opacity:0.2;fill:#FFFFFF;enable-background:new    ;" d="M170.667,128V64c0-11.76,7.659-21.333,17.066-21.333h-17.066
	c-11.76,0-21.333,9.573-21.333,21.333v64c0,11.76,9.573,21.333,21.333,21.333h17.066C178.326,149.333,170.667,139.76,170.667,128z"
	/>
<g>
	<circle style="fill:#303C42;" cx="192" cy="85.333" r="21.333"/>
	<circle style="fill:#303C42;" cx="320" cy="85.333" r="21.333"/>
	<path style="fill:#303C42;" d="M352,256h-64c-5.896,0-10.667,4.771-10.667,10.667c0,5.896,4.771,10.667,10.667,10.667h64
		c5.896,0,10.667-4.771,10.667-10.667C362.667,260.771,357.896,256,352,256z"/>
	<path style="fill:#303C42;" d="M352,320h-64c-5.896,0-10.667,4.771-10.667,10.667c0,5.896,4.771,10.667,10.667,10.667h64
		c5.896,0,10.667-4.771,10.667-10.667C362.667,324.771,357.896,320,352,320z"/>
	<path style="fill:#303C42;" d="M245.333,256H160c-5.896,0-10.667,4.771-10.667,10.667v64c0,5.896,4.771,10.667,10.667,10.667
		h85.333c5.896,0,10.667-4.771,10.667-10.667v-64C256,260.771,251.229,256,245.333,256z"/>
</g>
<rect x="170.667" y="277.333" style="fill:#9CCC65;" width="64" height="42.667"/>
<rect x="170.667" y="277.333" style="opacity:0.2;fill:#FFFFFF;enable-background:new    ;" width="10.667" height="42.667"/>
<rect x="224" y="277.333" style="opacity:0.1;enable-background:new    ;" width="10.667" height="42.667"/>
<linearGradient id="SVGID_1_" gradientUnits="userSpaceOnUse" x1="-35.7031" y1="639.4844" x2="-33.2031" y2="636.9844" gradientTransform="matrix(21.3333 0 0 -21.3333 996.3334 13791.667)">
	<stop  offset="0" style="stop-color:#231F20;stop-opacity:0.1"/>
	<stop  offset="1" style="stop-color:#231F20;stop-opacity:0"/>
</linearGradient>
<polygon style="fill:url(#SVGID_1_);" points="213.333,170.667 234.667,192 298.667,192 298.667,170.667 "/>
<linearGradient id="SVGID_2_" gradientUnits="userSpaceOnUse" x1="-38.4531" y1="627.7344" x2="-37.4531" y2="626.7344" gradientTransform="matrix(21.3333 0 0 -21.3333 996.3334 13791.667)">
	<stop  offset="0" style="stop-color:#231F20;stop-opacity:0.1"/>
	<stop  offset="1" style="stop-color:#231F20;stop-opacity:0"/>
</linearGradient>
<polygon style="fill:url(#SVGID_2_);" points="170.667,405.333 192,426.667 192,405.333 "/>
<linearGradient id="SVGID_3_" gradientUnits="userSpaceOnUse" x1="-31.4531" y1="627.7344" x2="-30.4531" y2="626.7344" gradientTransform="matrix(21.3333 0 0 -21.3333 996.3334 13791.667)">
	<stop  offset="0" style="stop-color:#231F20;stop-opacity:0.1"/>
	<stop  offset="1" style="stop-color:#231F20;stop-opacity:0"/>
</linearGradient>
<polygon style="fill:url(#SVGID_3_);" points="320,405.333 341.333,426.667 341.333,405.333 "/>
<linearGradient id="SVGID_4_" gradientUnits="userSpaceOnUse" x1="-43.5444" y1="637.8351" x2="-24.6913" y2="629.0431" gradientTransform="matrix(21.3333 0 0 -21.3333 996.3334 13791.667)">
	<stop  offset="0" style="stop-color:#FFFFFF;stop-opacity:0.2"/>
	<stop  offset="1" style="stop-color:#FFFFFF;stop-opacity:0"/>
</linearGradient>
<path style="fill:url(#SVGID_4_);" d="M448,352V224c0-17.646-14.354-32-32-32c-9.816,0-18.503,4.538-24.378,11.517
	C384.001,196.43,373.872,192,362.667,192H320v-21.333h21.333C364.865,170.667,384,151.531,384,128V64
	c0-23.531-19.135-42.667-42.667-42.667h-64C277.333,9.573,267.76,0,256,0c-11.76,0-21.333,9.573-21.333,21.333h-64
	C147.135,21.333,128,40.469,128,64v64c0,23.531,19.135,42.667,42.667,42.667H192V192h-42.667c-11.206,0-21.335,4.43-28.956,11.517
	C114.503,196.538,105.816,192,96,192c-17.646,0-32,14.354-32,32v128c0,9.177,3.935,17.406,10.145,23.246
	C67.004,385.885,64,401.578,64,416c0,5.896,4.771,10.667,10.667,10.667c5.896,0,10.667-4.771,10.667-10.667
	c0-12.74,4.25-32,10.667-32c6.458,0,10.635,18.958,10.667,32.01c0.021,5.885,4.792,10.646,10.667,10.646h0.01
	c5.885,0,10.656-4.771,10.656-10.656c0-5.725-0.509-11.659-1.503-17.417c6.617,4.221,14.419,6.75,22.836,6.75v32.272
	C136.46,447.352,128,462.646,128,480v21.333c0,5.896,4.771,10.667,10.667,10.667H224c5.896,0,10.667-4.771,10.667-10.667V480
	c0-17.354-8.46-32.648-21.333-42.395v-32.272h85.333v32.272c-12.874,9.746-21.333,25.04-21.333,42.395v21.333
	c0,5.896,4.771,10.667,10.667,10.667h85.333c5.896,0,10.667-4.771,10.667-10.667V480c0-17.354-8.46-32.648-21.333-42.395v-32.272
	c8.417,0,16.219-2.529,22.836-6.75C384.509,404.341,384,410.275,384,416c0,5.896,4.771,10.667,10.667,10.667
	c5.896,0,10.667-4.771,10.667-10.667c0-12.74,4.25-32,10.667-32c6.458,0,10.635,18.958,10.667,32.01
	c0.021,5.885,4.792,10.646,10.667,10.646h0.01c5.885,0,10.656-4.771,10.656-10.656c0-14.422-3.004-30.115-10.145-40.754
	C444.065,369.406,448,361.177,448,352z"/>
<g>
</g>
<g>
</g>
<g>
</g>
<g>
</g>
<g>
</g>
<g>
</g>
<g>
</g>
<g>
</g>
<g>
</g>
<g>
</g>
<g>
</g>
<g>
</g>
<g>
</g>
<g>
</g>
<g>
</g>
</svg>
