<?xml version="1.0" encoding="iso-8859-1"?>
<!-- Generator: Adobe Illustrator 19.0.0, SVG Export Plug-In . SVG Version: 6.00 Build 0)  -->
<svg version="1.1" id="Layer_1" xmlns="http://www.w3.org/2000/svg" xmlns:xlink="http://www.w3.org/1999/xlink" x="0px" y="0px"
	 viewBox="0 0 512 512" style="enable-background:new 0 0 512 512;" xml:space="preserve">
<polygon style="fill:#AEB5CA;" points="0,0.001 31.21,106.116 353.364,403.3 378.332,378.332 "/>
<polygon style="fill:#C7CFE2;" points="0,0.001 106.115,31.21 403.299,353.364 378.332,378.332 "/>
<polygon style="fill:#AEB5CA;" points="298.532,298.533 324.25,267.673 309.687,251.886 279.96,279.961 "/>
<rect x="416.838" y="363.885" transform="matrix(-0.7071 0.7071 -0.7071 -0.7071 1048.968 434.5139)" style="fill:#D2AA82;" width="35.31" height="141.24"/>
<g>
	<polygon style="fill:#BE876B;" points="490.688,465.721 478.205,503.173 465.72,490.689 478.205,453.236 	"/>
	<polygon style="fill:#BE876B;" points="465.72,440.752 453.236,478.205 440.751,465.721 453.236,428.269 	"/>
	<polygon style="fill:#BE876B;" points="440.751,415.784 428.268,453.236 415.784,440.752 428.268,403.3 	"/>
	<polygon style="fill:#BE876B;" points="415.784,390.817 403.299,428.269 390.816,415.784 403.299,378.332 	"/>
</g>
<path style="fill:#959CB3;" d="M509.415,484.446l-24.968,24.968c-3.447,3.447-9.037,3.447-12.484,0l-6.242-6.241
	c-3.447-3.447-3.447-9.037,0-12.484l24.968-24.968c3.447-3.447,9.037-3.447,12.484,0l6.242,6.242
	C512.862,475.41,512.862,480.999,509.415,484.446z"/>
<path style="fill:#707487;" d="M403.299,365.848l-14.564,22.888L365.847,403.3l12.147,12.146c2.687,2.687,6.792,3.353,10.19,1.654
	l11.382-5.69c5.125-2.562,9.281-6.718,11.843-11.843l5.691-11.382c1.699-3.399,1.033-7.503-1.654-10.19L403.299,365.848z"/>
<path style="fill:#D7DEED;" d="M232.103,232.103L232.103,232.103c-3.447,3.447-3.447,9.037,0,12.484l156.051,156.051l12.484-12.484
	L244.587,232.103C241.14,228.656,235.55,228.656,232.103,232.103z"/>
<polygon style="fill:#959CB3;" points="273.004,329.169 298.532,298.533 279.96,279.961 250.165,308.101 "/>
<polygon style="fill:#C7CFE2;" points="292.858,305.342 304.207,291.725 286.381,273.897 273.54,286.024 "/>
<path style="fill:#959CB3;" d="M431.665,327.845l-30.659,61.319c-2.562,5.126-6.718,9.281-11.843,11.843l-61.319,30.659
	c-3.399,1.699-7.503,1.033-10.19-1.654l-3.74-3.74c-2.178-2.178-1.78-5.814,0.82-7.468l63.597-40.471l40.471-63.597
	c1.654-2.599,5.29-2.998,7.468-0.82l3.74,3.74C432.697,320.342,433.364,324.446,431.665,327.845z"/>
<polygon style="fill:#AEB5CA;" points="512,0.001 480.79,106.116 158.636,403.3 133.668,378.332 "/>
<polygon style="fill:#C7CFE2;" points="512,0.001 405.885,31.21 108.701,353.364 133.668,378.332 "/>
<rect x="59.824" y="363.892" transform="matrix(0.7071 0.7071 -0.7071 0.7071 329.9391 72.4797)" style="fill:#D2AA82;" width="35.31" height="141.24"/>
<g>
	<polygon style="fill:#BE876B;" points="21.312,465.721 33.795,503.173 46.28,490.689 33.795,453.236 	"/>
	<polygon style="fill:#BE876B;" points="46.28,440.752 58.764,478.205 71.249,465.721 58.764,428.269 	"/>
	<polygon style="fill:#BE876B;" points="71.249,415.784 83.732,453.236 96.216,440.752 83.732,403.3 	"/>
	<polygon style="fill:#BE876B;" points="96.216,390.817 108.701,428.269 121.184,415.784 108.701,378.332 	"/>
</g>
<path style="fill:#959CB3;" d="M2.585,484.446l24.968,24.968c3.447,3.447,9.037,3.447,12.484,0l6.242-6.241
	c3.447-3.447,3.447-9.037,0-12.484l-24.968-24.968c-3.447-3.447-9.037-3.447-12.484,0l-6.242,6.242
	C-0.862,475.41-0.862,480.999,2.585,484.446z"/>
<path style="fill:#707487;" d="M108.701,365.848l14.564,22.888l22.888,14.564l-12.146,12.146c-2.687,2.687-6.792,3.353-10.19,1.654
	l-11.382-5.69c-5.126-2.562-9.281-6.718-11.843-11.843l-5.69-11.382c-1.699-3.399-1.033-7.503,1.654-10.19L108.701,365.848z"/>
<path style="fill:#D7DEED;" d="M279.897,232.103L279.897,232.103c3.447,3.447,3.447,9.037,0,12.484L123.846,400.638l-12.484-12.484
	l156.051-156.051C270.86,228.656,276.45,228.656,279.897,232.103z"/>
<path style="fill:#959CB3;" d="M80.335,327.845l30.659,61.319c2.562,5.126,6.718,9.281,11.843,11.843l61.318,30.659
	c3.399,1.699,7.503,1.033,10.19-1.654l3.74-3.74c2.178-2.178,1.78-5.814-0.82-7.468l-63.597-40.471l-40.471-63.599
	c-1.654-2.599-5.29-2.998-7.468-0.82l-3.74,3.74C79.303,320.342,78.636,324.446,80.335,327.845z"/>
<g>
</g>
<g>
</g>
<g>
</g>
<g>
</g>
<g>
</g>
<g>
</g>
<g>
</g>
<g>
</g>
<g>
</g>
<g>
</g>
<g>
</g>
<g>
</g>
<g>
</g>
<g>
</g>
<g>
</g>
</svg>
